<svg xmlns="http://www.w3.org/2000/svg"
  viewBox="0 0 190 120"
  width="190"
  height="120"
  preserveAspectRatio="xMidYMid meet"
  style="width: 100%; height: 100%; transform: translate3d(0px, 0px, 0px);">
  <defs>
    <clipPath id="__lottie_element_40">
      <rect width="190"
        height="120"
        x="0"
        y="0"></rect>
    </clipPath>
    <clipPath id="__lottie_element_42">
      <path d="M0,0 L190,0 L190,120 L0,120z"></path>
    </clipPath>
  </defs>
  <g clip-path="url(#__lottie_element_40)">
    <g clip-path="url(#__lottie_element_42)"
      transform="matrix(1,0,0,1,0,0)"
      opacity="1"
      style="display: block;">
      <g transform="matrix(1,0,0,1,39.78799819946289,4.787998199462891)"
        opacity="1"
        style="display: block;">
        <g opacity="1"
          transform="matrix(1,0,0,1,55.21200180053711,55.21200180053711)">
          <path fill="rgb(255,220,49)"
            fill-opacity="1"
            d=" M-54.96200180053711,0 C-54.96200180053711,30.354000091552734 -30.354999542236328,54.96200180053711 0,54.96200180053711 C30.354999542236328,54.96200180053711 54.96200180053711,30.354000091552734 54.96200180053711,0 C54.96200180053711,-30.354999542236328 30.354999542236328,-54.96200180053711 0,-54.96200180053711 C-30.354999542236328,-54.96200180053711 -54.96200180053711,-30.354999542236328 -54.96200180053711,0z">
          </path>
        </g>
      </g>
      <g transform="matrix(1,0,0,1,32.12699890136719,4.787998199462891)"
        opacity="1"
        style="display: block;">
        <g opacity="1"
          transform="matrix(1,0,0,1.352139949798584,61.89500045776367,83.92900085449219)">
          <path fill="rgb(239,239,239)"
            fill-opacity="1"
            d=" M2.9839999675750732,-17.663000106811523 C2.9839999675750732,-17.663000106811523 -2.9839999675750732,-17.663000106811523 -2.9839999675750732,-17.663000106811523 C-5.741000175476074,-17.663000106811523 -7.980000019073486,-19.134000778198242 -7.980000019073486,-16.378000259399414 C-7.980000019073486,-16.378000259399414 -7.995999813079834,12.651000022888184 -7.995999813079834,12.651000022888184 C-7.995999813079834,15.406999588012695 -5.741000175476074,17.66200065612793 -2.9839999675750732,17.66200065612793 C-2.9839999675750732,17.66200065612793 2.9839999675750732,17.66200065612793 2.9839999675750732,17.66200065612793 C5.741000175476074,17.66200065612793 7.995999813079834,15.406999588012695 7.995999813079834,12.651000022888184 C7.995999813079834,12.651000022888184 8.01200008392334,-16.378000259399414 8.01200008392334,-16.378000259399414 C8.01200008392334,-19.134000778198242 5.741000175476074,-17.663000106811523 2.9839999675750732,-17.663000106811523z">
          </path>
        </g>
        <g opacity="1"
          transform="matrix(0.8964400291442871,0,-0.5045368671417236,1,104.38433074951172,63.965999603271484)">
          <path fill="rgb(176,177,180)"
            fill-opacity="1"
            d=" M-28.479999542236328,15.47700023651123 C-28.479999542236328,15.47700023651123 28.48200035095215,15.47700023651123 28.48200035095215,15.47700023651123 C31.20800018310547,15.47700023651123 33.4379997253418,13.246999740600586 33.4379997253418,10.520000457763672 C33.4379997253418,10.520000457763672 33.4379997253418,-10.520000457763672 33.4379997253418,-10.520000457763672 C33.4379997253418,-13.246000289916992 31.20800018310547,-15.47700023651123 28.48200035095215,-15.47700023651123 C28.48200035095215,-15.47700023651123 -28.479999542236328,-15.47700023651123 -28.479999542236328,-15.47700023651123 C-31.20599937438965,-15.47700023651123 -33.4379997253418,-13.246000289916992 -33.4379997253418,-10.520000457763672 C-33.4379997253418,-10.520000457763672 -33.4379997253418,10.520000457763672 -33.4379997253418,10.520000457763672 C-33.4379997253418,13.246999740600586 -31.20599937438965,15.47700023651123 -28.479999542236328,15.47700023651123z">
          </path>
        </g>
        <g opacity="1"
          transform="matrix(1,0,0,1,30.42300033569336,49.58399963378906)">
          <path fill="rgb(224,225,223)"
            fill-opacity="1"
            d=" M9.34000015258789,-31.476999282836914 C8.10099983215332,-31.25874137878418 5.778298854827881,-30.40668487548828 5.618000030517578,-26.54400062561035 C5.618000030517578,-26.54400062561035 2.5803382396698,-7.88026762008667 2.5803382396698,-7.88026762008667 C2.5803382396698,-7.88026762008667 37.86621856689453,33.579872131347656 37.86621856689453,33.579872131347656 C37.63977813720703,32.570213317871094 39.5055046081543,31.065122604370117 39.95475387573242,29.547758102416992 C39.95475387573242,29.547758102416992 44.60735321044922,7.848852634429932 44.60735321044922,7.848852634429932 C45.395355224609375,5.142852783203125 47.29220962524414,3.0295753479003906 49.96820831298828,1.947575330734253 C49.953208923339844,1.9515753984451294 9.34000015258789,-31.476999282836914 9.34000015258789,-31.476999282836914z">
          </path>
        </g>
        <g opacity="1"
          transform="matrix(-1.0118299722671509,0,0,1,30.826000213623047,49.58399963378906)">
          <path fill="rgb(224,225,223)"
            fill-opacity="1"
            d=" M-46.96713638305664,-31.490999221801758 C-48.20613479614258,-31.350000381469727 -53.104976654052734,-29.658504486083984 -53.36210250854492,-26.581741333007812 C-53.50831604003906,-25.903806686401367 -57.96699905395508,-6.6579999923706055 -57.96699905395508,-6.6579999923706055 C-57.96699905395508,-6.6579999923706055 -60.0369987487793,31.0310001373291 -60.0369987487793,31.0310001373291 C-59.369998931884766,30.46500015258789 -59.167999267578125,29.861000061035156 -58.757999420166016,28.579999923706055 C-58.757999420166016,28.579999923706055 -59.117000579833984,5.570000171661377 -59.117000579833984,5.570000171661377 C-58.32899856567383,2.864000082015991 -58.12900161743164,1.2910000085830688 -55.452999114990234,0.20900000631809235 C-55.46799850463867,0.21299999952316284 -46.96713638305664,-31.490999221801758 -46.96713638305664,-31.490999221801758z">
          </path>
        </g>
        <g opacity="1"
          transform="matrix(1,0,-0.2735436260700226,1,37.376258850097656,-0.3230018615722656)">
          <g opacity="1"
            transform="matrix(1,0,0,1,81.125,67.91899871826172)">
            <path fill="rgb(239,239,239)"
              fill-opacity="1"
              d=" M-21.44099998474121,19.378000259399414 C-21.44099998474121,19.378000259399414 21.44099998474121,19.378000259399414 21.44099998474121,19.378000259399414 C24.929000854492188,19.378000259399414 27.756000518798828,16.551000595092773 27.756000518798828,13.062999725341797 C27.756000518798828,13.062999725341797 27.756000518798828,-13.062999725341797 27.756000518798828,-13.062999725341797 C27.756000518798828,-16.549999237060547 24.929000854492188,-19.378000259399414 21.44099998474121,-19.378000259399414 C21.44099998474121,-19.378000259399414 -21.44099998474121,-19.378000259399414 -21.44099998474121,-19.378000259399414 C-24.929000854492188,-19.378000259399414 -27.756000518798828,-16.549999237060547 -27.756000518798828,-13.062999725341797 C-27.756000518798828,-13.062999725341797 -27.756000518798828,13.062999725341797 -27.756000518798828,13.062999725341797 C-27.756000518798828,16.551000595092773 -24.929000854492188,19.378000259399414 -21.44099998474121,19.378000259399414z">
            </path>
          </g>
          <g opacity="1"
            transform="matrix(1,0,0,1,59.59700012207031,54.775001525878906)">
            <path fill="rgb(13,77,98)"
              fill-opacity="1"
              d=" M2.065000057220459,0 C2.065000057220459,1.1399999856948853 1.1399999856948853,2.065000057220459 0,2.065000057220459 C-1.1410000324249268,2.065000057220459 -2.065000057220459,1.1399999856948853 -2.065000057220459,0 C-2.065000057220459,-1.1410000324249268 -1.1410000324249268,-2.065000057220459 0,-2.065000057220459 C1.1399999856948853,-2.065000057220459 2.065000057220459,-1.1410000324249268 2.065000057220459,0z">
            </path>
          </g>
          <g opacity="1"
            transform="matrix(1,0,0,1,59.59700012207031,81.06400299072266)">
            <path fill="rgb(13,77,98)"
              fill-opacity="1"
              d=" M2.065000057220459,0 C2.065000057220459,1.1399999856948853 1.1399999856948853,2.065000057220459 0,2.065000057220459 C-1.1410000324249268,2.065000057220459 -2.065000057220459,1.1399999856948853 -2.065000057220459,0 C-2.065000057220459,-1.1410000324249268 -1.1410000324249268,-2.065000057220459 0,-2.065000057220459 C1.1399999856948853,-2.065000057220459 2.065000057220459,-1.1410000324249268 2.065000057220459,0z">
            </path>
          </g>
          <g opacity="1"
            transform="matrix(1,0,0,1,102.65499877929688,54.775001525878906)">
            <path fill="rgb(13,77,98)"
              fill-opacity="1"
              d=" M2.065000057220459,0 C2.065000057220459,1.1399999856948853 1.1399999856948853,2.065000057220459 0,2.065000057220459 C-1.1410000324249268,2.065000057220459 -2.065000057220459,1.1399999856948853 -2.065000057220459,0 C-2.065000057220459,-1.1410000324249268 -1.1410000324249268,-2.065000057220459 0,-2.065000057220459 C1.1399999856948853,-2.065000057220459 2.065000057220459,-1.1410000324249268 2.065000057220459,0z">
            </path>
          </g>
          <g opacity="1"
            transform="matrix(1,0,0,1,102.65499877929688,81.06400299072266)">
            <path fill="rgb(13,77,98)"
              fill-opacity="1"
              d=" M2.065000057220459,0 C2.065000057220459,1.1399999856948853 1.1399999856948853,2.065000057220459 0,2.065000057220459 C-1.1410000324249268,2.065000057220459 -2.065000057220459,1.1399999856948853 -2.065000057220459,0 C-2.065000057220459,-1.1410000324249268 -1.1410000324249268,-2.065000057220459 0,-2.065000057220459 C1.1399999856948853,-2.065000057220459 2.065000057220459,-1.1410000324249268 2.065000057220459,0z">
            </path>
          </g>
          <g opacity="1"
            transform="matrix(1,0,0,1,81.1259994506836,67.91899871826172)">
            <path fill="rgb(13,77,98)"
              fill-opacity="1"
              d=" M-14.331999778747559,11.092000007629395 C-14.331999778747559,11.092000007629395 14.331999778747559,11.092000007629395 14.331999778747559,11.092000007629395 C15.637999534606934,11.092000007629395 16.707000732421875,10.02299976348877 16.707000732421875,8.717000007629395 C16.707000732421875,8.717000007629395 16.707000732421875,-8.71500015258789 16.707000732421875,-8.71500015258789 C16.707000732421875,-10.022000312805176 15.637999534606934,-11.092000007629395 14.331999778747559,-11.092000007629395 C14.331999778747559,-11.092000007629395 -14.331999778747559,-11.092000007629395 -14.331999778747559,-11.092000007629395 C-15.637999534606934,-11.092000007629395 -16.707000732421875,-10.022000312805176 -16.707000732421875,-8.71500015258789 C-16.707000732421875,-8.71500015258789 -16.707000732421875,8.717000007629395 -16.707000732421875,8.717000007629395 C-16.707000732421875,10.02299976348877 -15.637999534606934,11.092000007629395 -14.331999778747559,11.092000007629395z">
            </path>
          </g>
          <g opacity="1"
            transform="matrix(1,0,0,1,81.1259994506836,67.91999816894531)">
            <path stroke-linecap="butt"
              stroke-linejoin="miter"
              fill-opacity="0"
              stroke-miterlimit="10"
              stroke="rgb(6,52,67)"
              stroke-opacity="1"
              stroke-width="0.967"
              d=" M-12.274999618530273,8.833999633789062 C-12.274999618530273,8.833999633789062 12.274999618530273,8.833999633789062 12.274999618530273,8.833999633789062 C13.35099983215332,8.833999633789062 14.232000350952148,7.953999996185303 14.232000350952148,6.876999855041504 C14.232000350952148,6.876999855041504 14.232000350952148,-6.877999782562256 14.232000350952148,-6.877999782562256 C14.232000350952148,-7.953999996185303 13.35099983215332,-8.833999633789062 12.274999618530273,-8.833999633789062 C12.274999618530273,-8.833999633789062 -12.274999618530273,-8.833999633789062 -12.274999618530273,-8.833999633789062 C-13.35099983215332,-8.833999633789062 -14.232000350952148,-7.953999996185303 -14.232000350952148,-6.877999782562256 C-14.232000350952148,-6.877999782562256 -14.232000350952148,6.876999855041504 -14.232000350952148,6.876999855041504 C-14.232000350952148,7.953999996185303 -13.35099983215332,8.833999633789062 -12.274999618530273,8.833999633789062z">
            </path>
          </g>
          <g opacity="1"
            transform="matrix(1,0,0,1,81.125,67.91899871826172)">
            <path fill="rgb(6,52,67)"
              fill-opacity="1"
              d=" M2.9579999446868896,0 C2.9579999446868896,1.6339999437332153 1.6339999437332153,2.9579999446868896 0,2.9579999446868896 C-1.6330000162124634,2.9579999446868896 -2.9579999446868896,1.6339999437332153 -2.9579999446868896,0 C-2.9579999446868896,-1.6330000162124634 -1.6330000162124634,-2.9579999446868896 0,-2.9579999446868896 C1.6339999437332153,-2.9579999446868896 2.9579999446868896,-1.6330000162124634 2.9579999446868896,0z">
            </path>
          </g>
          <g opacity="1"
            transform="matrix(1,0,0,1,81.1259994506836,67.91999816894531)">
            <path stroke-linecap="butt"
              stroke-linejoin="miter"
              fill-opacity="0"
              stroke-miterlimit="10"
              stroke="rgb(6,52,67)"
              stroke-opacity="1"
              stroke-width="1"
              d=" M4.5960001945495605,-0.0010000000474974513 C4.5960001945495605,2.5369999408721924 2.5369999408721924,4.5960001945495605 -0.0010000000474974513,4.5960001945495605 C-2.5380001068115234,4.5960001945495605 -4.5960001945495605,2.5369999408721924 -4.5960001945495605,-0.0010000000474974513 C-4.5960001945495605,-2.5390000343322754 -2.5380001068115234,-4.5960001945495605 -0.0010000000474974513,-4.5960001945495605 C2.5369999408721924,-4.5960001945495605 4.5960001945495605,-2.5390000343322754 4.5960001945495605,-0.0010000000474974513z">
            </path>
          </g>
          <g opacity="1"
            transform="matrix(1,0,0,1,81.1259994506836,67.91999816894531)">
            <path stroke-linecap="butt"
              stroke-linejoin="miter"
              fill-opacity="0"
              stroke-miterlimit="10"
              stroke="rgb(6,52,67)"
              stroke-opacity="1"
              stroke-width="1"
              d=" M6.76800012588501,-0.0010000000474974513 C6.76800012588501,3.736999988555908 3.736999988555908,6.76800012588501 -0.0010000000474974513,6.76800012588501 C-3.73799991607666,6.76800012588501 -6.76800012588501,3.736999988555908 -6.76800012588501,-0.0010000000474974513 C-6.76800012588501,-3.73799991607666 -3.73799991607666,-6.76800012588501 -0.0010000000474974513,-6.76800012588501 C3.736999988555908,-6.76800012588501 6.76800012588501,-3.73799991607666 6.76800012588501,-0.0010000000474974513z">
            </path>
          </g>
        </g>
        <g opacity="1"
          transform="matrix(1,0,0,1,24.579999923706055,62.56999969482422)">
          <path fill="rgb(176,177,180)"
            fill-opacity="1"
            d=" M43.878475189208984,18.18025779724121 C43.878475189208984,18.18025779724121 44.197227478027344,22.72148323059082 44.197227478027344,22.72148323059082 C44.197227478027344,22.72148323059082 8.663103103637695,-17.261526107788086 8.663103103637695,-17.261526107788086 C8.663103103637695,-17.261526107788086 8.424102783203125,-20.842525482177734 8.424102783203125,-20.842525482177734 C8.424102783203125,-20.842525482177734 43.878475189208984,18.18025779724121 43.878475189208984,18.18025779724121z">
          </path>
        </g>
        <g opacity="1"
          transform="matrix(1,0,0,1,59.62200164794922,34.11800003051758)">
          <path fill="rgb(239,239,239)"
            fill-opacity="1"
            d=" M81.40927124023438,15.89258861541748 C81.1107406616211,14.938919067382812 25.920879364013672,-12.876283645629883 23.948152542114258,-13.970211029052734 C22.32417869567871,-15.639430046081543 19.844350814819336,-16.02094078063965 18.768091201782227,-16.023235321044922 C16.682886123657227,-16.02782440185547 -20.000999450683594,-16.027000427246094 -20.000999450683594,-16.027000427246094 C-20.000999450683594,-16.027000427246094 -20.126689910888672,-15.393023490905762 -19.157855987548828,-13.59508228302002 C-12.281057357788086,-6.08812952041626 14.508651733398438,18.885059356689453 15.93814754486084,20.515085220336914 C18.240983963012695,15.71440315246582 23.406490325927734,14.761794090270996 23.406490325927734,14.761794090270996 C23.406490325927734,14.761794090270996 78.55546569824219,15.16282844543457 78.55546569824219,15.16282844543457 C78.55546569824219,15.16282844543457 81.04609680175781,15.049635887145996 81.40927124023438,15.89258861541748z">
          </path>
        </g>
      </g>
    </g>
  </g>
</svg>
