<svg xmlns="http://www.w3.org/2000/svg" xmlns:xlink="http://www.w3.org/1999/xlink" viewBox="0 0 208.64 123.21"><defs><style>.cls-1{fill:#231f20;}.cls-2{fill:none;}.cls-3{fill:url(#Degradado_sin_nombre_2);}.cls-4{fill:url(#Degradado_sin_nombre_2-2);}.cls-5{fill:url(#Degradado_sin_nombre_2-3);}.cls-6{fill:url(#Degradado_sin_nombre_2-4);}.cls-7{fill:url(#Degradado_sin_nombre_2-5);}.cls-8{fill:url(#Degradado_sin_nombre_2-6);}</style><linearGradient id="Degradado_sin_nombre_2" y1="50.65" x2="77.41" y2="50.65" gradientUnits="userSpaceOnUse"><stop offset="0" stop-color="#006c9e"/><stop offset="0.07" stop-color="#005b82"/><stop offset="1" stop-color="#62ccf3"/></linearGradient><linearGradient id="Degradado_sin_nombre_2-2" x1="12.37" y1="49.77" x2="88.18" y2="49.77" xlink:href="#Degradado_sin_nombre_2"/><linearGradient id="Degradado_sin_nombre_2-3" x1="24.9" y1="47.9" x2="94.99" y2="47.9" xlink:href="#Degradado_sin_nombre_2"/><linearGradient id="Degradado_sin_nombre_2-4" x1="701.41" y1="-12.68" x2="701.41" y2="-113.88" gradientTransform="translate(871.35 -12.68) rotate(180)" xlink:href="#Degradado_sin_nombre_2"/><linearGradient id="Degradado_sin_nombre_2-5" x1="712.98" y1="-14.45" x2="712.98" y2="-113.87" gradientTransform="translate(871.35 -12.68) rotate(180)" xlink:href="#Degradado_sin_nombre_2"/><linearGradient id="Degradado_sin_nombre_2-6" x1="722.65" y1="-18.2" x2="722.65" y2="-113.87" gradientTransform="translate(871.35 -12.68) rotate(180)" xlink:href="#Degradado_sin_nombre_2"/></defs><title>Recurso 4</title><g id="Capa_2" data-name="Capa 2"><g id="Capa_1-2" data-name="Capa 1"><path class="cls-1" d="M195.54,17.34A12.84,12.84,0,1,1,182.75,4.85,12.55,12.55,0,0,1,195.54,17.34Zm-22.47,0a9.68,9.68,0,0,0,9.75,10,9.56,9.56,0,0,0,9.52-9.9c0-5.56-4-10.05-9.6-10.05A9.71,9.71,0,0,0,173.08,17.34Zm7.69,6.55h-2.89V11.4a25.28,25.28,0,0,1,4.8-.38,7.78,7.78,0,0,1,4.34.91,3.46,3.46,0,0,1,1.22,2.74,3.2,3.2,0,0,1-2.59,2.89v.15c1.22.46,1.9,1.37,2.28,3a9.56,9.56,0,0,0,.91,3.12h-3.12a10.69,10.69,0,0,1-1-3c-.23-1.37-1-2-2.59-2h-1.37Zm.08-7.08h1.37c1.6,0,2.89-.53,2.89-1.83,0-1.14-.84-1.9-2.67-1.9a6.93,6.93,0,0,0-1.6.15Z"/><path class="cls-1" d="M148.1,119.25v-8.4h16.41c0-2.17,0-4.12,0-4.12H148.13a4.6,4.6,0,0,0-4.49,4.49.4.4,0,0,0,0,.13v7.19a.49.49,0,0,0,0,.14,4.62,4.62,0,0,0,4.49,4.49h16.38c0-1.61,0-2.65,0-3.95Z"/><polygon class="cls-1" points="208.46 106.74 208.46 110.86 198.55 110.86 198.55 123.19 194.05 123.19 194.05 110.86 184.14 110.86 184.14 106.74 208.46 106.74"/><path class="cls-1" d="M165.05,123.19l8.12-14,.27-.46a4.47,4.47,0,0,1,1.5-1.43,4.63,4.63,0,0,1,2.26-.62,4.54,4.54,0,0,1,2.26.62,5.51,5.51,0,0,1,1.51,1.43l.24.41,8.15,14h-5.2l-4.69-8.08-2.26-3.9-2.26,3.9-4.69,8.08Z"/><circle class="cls-1" cx="140.57" cy="121.12" r="2.07"/><path class="cls-1" d="M24.35,106.72l-8.12,14-.27.46a4.47,4.47,0,0,1-1.5,1.43,4.63,4.63,0,0,1-2.26.62,4.54,4.54,0,0,1-2.26-.62,5.51,5.51,0,0,1-1.51-1.43l-.24-.41L0,106.72h5.2l4.69,8.08,2.26,3.9,2.26-3.9,4.69-8.08Z"/><rect class="cls-1" x="25.85" y="106.73" width="4.5" height="16.45"/><path class="cls-1" d="M83.53,106.73H68.21a4.6,4.6,0,0,0-4.49,4.49.53.53,0,0,0,0,.13v7.18a.62.62,0,0,0,0,.14,4.61,4.61,0,0,0,4.49,4.49H83.53A4.64,4.64,0,0,0,88,118.67v-7.45A4.62,4.62,0,0,0,83.53,106.73Zm0,12.5H68.18v-8.39H83.55Z"/><path class="cls-1" d="M113.78,106.72v11.82a.66.66,0,0,1,0,.13,4.63,4.63,0,0,1-4.49,4.49h-.13a4.58,4.58,0,0,1-2.95-1.06c-.11-.1-.23-.19-.33-.3l-2-1.8-1.49-1.34-1.64-1.48L99.38,116l-1.76-1.59-1.85-1.67-1.64-1.48-.17-.15v12.1h-4.5V111.35a.66.66,0,0,1,0-.13A4.61,4.61,0,0,1,94,106.73h.14a4.54,4.54,0,0,1,2.75.92l.08.05.5.45,1.94,1.75,1.46,1.32,1.64,1.48,1.39,1.26,1.75,1.59,1.83,1.65,1.64,1.48.18.17V106.72Z"/><rect class="cls-1" x="57.66" y="106.72" width="4.5" height="16.45"/><path class="cls-1" d="M36.34,110.83v2.11l14.81,0c2.76,0,5,1.82,5,4.07v2.11c0,2.25-2.24,4.07-5,4.07H31.85V119.1l19.82,0V117l-14.8,0c-2.77,0-5-1.82-5-4.07V110.8c0-2.25,2.24-4.08,5-4.08h19.3v4.08Z"/><path class="cls-1" d="M113.34,123.17l8.12-14,.27-.46a4.47,4.47,0,0,1,1.5-1.43,4.63,4.63,0,0,1,2.26-.62,4.54,4.54,0,0,1,2.26.62,5.51,5.51,0,0,1,1.51,1.43l.24.41,8.15,14h-5.2l-4.69-8.08-2.26-3.9-2.26,3.9-4.69,8.08Z"/><rect class="cls-2" x="0.04" y="0.24" width="208.59" height="122.92"/><path class="cls-3" d="M0,.05c20.37,35,51.24,88.07,51.24,88.07a27.66,27.66,0,0,0,26.18,13,20.27,20.27,0,0,1-16.54-9C60.87,92.11,8,.79,7.5.05Z"/><path class="cls-4" d="M12.37.06c.47.8,9.11,15.67,9.78,16.87,2.08,3.68,4.22,7.37,6.36,11,1,1.74,36.63,63.41,36.76,63.61l.07.07A16.74,16.74,0,0,0,77.19,99.3a22.75,22.75,0,0,0,11-1.35c-1.47.47-9,2.23-15.27-6.08C72.57,91.53,19.74.2,19.67.06Z"/><path class="cls-5" d="M24.9.06C39.69,25.71,57.84,57.25,58,57.51c9.24,16,17.21,29.8,17.34,30C82.95,99.9,92.85,95.32,95,92.71c-.87.47-6.41,3.71-12.71-6.14C82.08,86.31,51.75,34,32.06.06Z"/><path class="cls-6" d="M208.64,101.2c-20.37-35-51.24-88.07-51.24-88.07A27.66,27.66,0,0,0,131.23.1a20.27,20.27,0,0,1,16.54,9c0,.07,52.91,91.39,53.37,92.13Z"/><path class="cls-7" d="M196.27,101.19c-.47-.8-9.11-15.67-9.78-16.87-2.08-3.68-4.22-7.37-6.36-11-1-1.74-36.63-63.41-36.76-63.61l-.07-.07A16.74,16.74,0,0,0,131.45,2a22.75,22.75,0,0,0-11,1.35c1.47-.47,9-2.23,15.27,6.08.34.33,53.17,91.67,53.23,91.8Z"/><path class="cls-8" d="M183.75,101.19C168.95,75.54,150.8,44,150.67,43.74c-9.24-16-17.21-29.8-17.34-30-7.63-12.39-17.53-7.81-19.67-5.2.87-.47,6.41-3.71,12.71,6.14.2.27,30.53,52.56,50.22,86.51Z"/><path class="cls-1" d="M74.87,73.68Q92.39,43.51,110,13.43a22,22,0,0,1,3-4.15c2.29-2.63,7.24-1.83,10.17,1.41A29.77,29.77,0,0,1,126,14.26c2.56,4.46,5.17,8.8,7.73,13.25L98.68,88a16.77,16.77,0,0,1-3.62,4.65,6.83,6.83,0,0,1-4.19.84c-1.52-.22-5.14-1.14-9-7.73C79.69,82,77.62,78.52,74.87,73.68Z"/></g></g></svg>