<svg xmlns="http://www.w3.org/2000/svg" xmlns:xlink="http://www.w3.org/1999/xlink" viewBox="0 0 378.31 59.43">
<defs>
<style>
    .cls-1{fill:url(#Degradado_sin_nombre_2);}
    .cls-2{fill:#231f20;}
    .cls-3{fill:url(#Degradado_sin_nombre_2-2);}
    .cls-4{fill:url(#Degradado_sin_nombre_2-3);}
    .cls-5{fill:url(#Degradado_sin_nombre_2-4);}
    .cls-6{fill:url(#Degradado_sin_nombre_2-5);}
    .cls-7{fill:url(#Degradado_sin_nombre_2-6);}
    .cls-8{fill:url(#Degradado_sin_nombre_2-7);}
    .cls-9{fill:url(#Degradado_sin_nombre_2-8);}
</style>
<linearGradient id="Degradado_sin_nombre_2" x1="22.81" y1="35.5" x2="23.65" y2="35.5" gradientUnits="userSpaceOnUse">
<stop offset="0" stop-color="#006c9e"/>
<stop offset="0.07" stop-color="#005b82"/>
<stop offset="1" stop-color="#62ccf3"/>
</linearGradient>
    <linearGradient id="Degradado_sin_nombre_2-2" x1="5.53" y1="22.5" x2="39.48" y2="22.5" xlink:href="#Degradado_sin_nombre_2"/>
    <linearGradient id="Degradado_sin_nombre_2-3" x1="11.13" y1="21.68" x2="42.54" y2="21.68" xlink:href="#Degradado_sin_nombre_2"/>
    <linearGradient id="Degradado_sin_nombre_2-4" x1="0" y1="22.97" x2="34.52" y2="22.97" xlink:href="#Degradado_sin_nombre_2"/>
    <linearGradient id="Degradado_sin_nombre_2-5" x1="137.85" y1="607.7" x2="138.69" y2="607.7" gradientTransform="translate(493.35 617.89) rotate(180)" xlink:href="#Degradado_sin_nombre_2"/>
    <linearGradient id="Degradado_sin_nombre_2-6" x1="120.57" y1="594.7" x2="154.52" y2="594.7" gradientTransform="translate(493.35 617.89) rotate(180)" xlink:href="#Degradado_sin_nombre_2"/>
    <linearGradient id="Degradado_sin_nombre_2-7" x1="126.17" y1="593.88" x2="157.58" y2="593.88" gradientTransform="translate(493.35 617.89) rotate(180)" xlink:href="#Degradado_sin_nombre_2"/>
    <linearGradient id="Degradado_sin_nombre_2-8" x1="115.04" y1="595.17" x2="149.56" y2="595.17" gradientTransform="translate(493.35 617.89) rotate(180)" xlink:href="#Degradado_sin_nombre_2"/>
</defs>
<title>Recurso 2</title>
<g id="Capa_2" data-name="Capa 2">
<g id="Capa_1-2" data-name="Capa 1">
<path class="cls-1" d="M23.65,36.2c-.27-.48-.54-1-.84-1.41a3.32,3.32,0,0,0,.18.33,5.81,5.81,0,0,0,.3.51,2.05,2.05,0,0,0,.15.3A1.64,1.64,0,0,0,23.65,36.2Z"/>
<path class="cls-2" d="M67,.24,44.63,38.79l-.74,1.26a12.05,12.05,0,0,1-1.37,1.74c-.43.23-2.93,1.52-5.71-2.83-.07-.09-8.37-14.4-16.19-27.9L27.27,22.5l6.24,10.75L39.75,22.5,52.67.24Z"/>
<path class="cls-3" d="M5.53.25c.21.36,4.08,7,4.38,7.55.93,1.65,1.89,3.3,2.85,4.94.45.78,16.39,28.38,16.45,28.47l0,0a7.49,7.49,0,0,0,5.3,3.42,10.47,10.47,0,0,0,4.94-.57c-.66.21-4,1-6.86-2.76C32.47,41.18,8.83.31,8.8.25Z"/>
<path class="cls-4" d="M42.54,41.78a2.42,2.42,0,0,1-.36.35c-1.43,1.13-5.39,2.28-8.48-2.75-.06-.09-3.63-6.26-7.76-13.42-.06-.12-8.19-14.24-14.81-25.72h3.21l3.49,6,2.79,4.8C28.44,24.56,36.74,38.87,36.81,39c2.78,4.35,5.28,3.06,5.71,2.83Z"/>
<path class="cls-5" d="M34.52,45.64c-.33,0-.67,0-1,0A12.52,12.52,0,0,1,27.27,44a15,15,0,0,1-4.15-4l-.66-1.14L0,.25H3.37C4,1.34,27.17,41.58,27.17,41.61A9,9,0,0,0,34.52,45.64Z"/>
<rect class="cls-2" x="71.14" y="0.24" width="12.36" height="45.2"/>
<path class="cls-2" d="M229.6.26a1.71,1.71,0,0,0-.39,0H187.87a1.46,1.46,0,0,0-.36,0,12.64,12.64,0,0,0-12.34,12.33,1.45,1.45,0,0,0,0,.36V32.68a1.7,1.7,0,0,0,0,.39A12.68,12.68,0,0,0,187.51,45.4a1.45,1.45,0,0,0,.36,0h41.34a1.7,1.7,0,0,0,.39,0,12.74,12.74,0,0,0,12.34-12.33V12.59A12.7,12.7,0,0,0,229.6.26Zm.06,34.33H187.42v-23h42.24Z"/>
<path class="cls-2" d="M312.72.23V32.71a1.81,1.81,0,0,1,0,.36A12.73,12.73,0,0,1,300.36,45.4a1.81,1.81,0,0,1-.36,0,12.59,12.59,0,0,1-8.1-2.92c-.31-.26-.62-.53-.91-.81l-5.48-4.93-4.1-3.69L276.91,29l-3.76-3.4-4.84-4.36-5.08-4.57-4.5-4.07-.46-.41V45.43H245.92V12.95a1.81,1.81,0,0,1,0-.36A12.67,12.67,0,0,1,258.28.25a2.06,2.06,0,0,1,.38,0,12.47,12.47,0,0,1,7.57,2.54.57.57,0,0,1,.22.14l1.37,1.25L273.15,9l4,3.62,4.5,4.07,3.83,3.45,4.81,4.36,5,4.53,4.5,4.07.5.46V.23Z"/>
<rect class="cls-2" x="158.53" y="0.23" width="12.36" height="45.2"/>
<path class="cls-2" d="M100,11.51v5.81l40.68-.07c7.59,0,13.76,5,13.76,11.19v5.81c0,6.18-6.17,11.19-13.76,11.19h-53V34.24l54.44,0V28.39l-40.67,0c-7.6,0-13.77-5-13.77-11.19V11.43c0-6.18,6.17-11.2,13.77-11.2h53v11.2Z"/>
<path class="cls-2" d="M372.62,7.44a5.85,5.85,0,1,1-5.83-5.69A5.72,5.72,0,0,1,372.62,7.44Zm-10.23,0A4.41,4.41,0,0,0,366.82,12a4.36,4.36,0,0,0,4.33-4.51,4.39,4.39,0,1,0-8.77,0Zm3.5,3h-1.32V4.73a11.58,11.58,0,0,1,2.19-.17,3.54,3.54,0,0,1,2,.42,1.57,1.57,0,0,1,.55,1.25,1.46,1.46,0,0,1-1.18,1.32v.07a1.68,1.68,0,0,1,1,1.39,4.33,4.33,0,0,0,.42,1.42h-1.42A4.88,4.88,0,0,1,367.69,9c-.1-.62-.45-.9-1.18-.9h-.62Zm0-3.23h.63c.73,0,1.32-.24,1.32-.83s-.38-.87-1.21-.87a3.12,3.12,0,0,0-.73.07Z"/>
<path class="cls-2" d="M158.9,50.21h1.74v9.21H158.9Z"/>
<path class="cls-2" d="M164,52.41v7h-1.65V50.21h1.37l9.17,7.07V50.21h1.65v9.21h-1.37Z"/>
<path class="cls-2" d="M175.75,50.21H187v1.36h-4.7v7.85h-1.74V51.58h-4.83Z"/>
<path class="cls-2" d="M189.93,55.24v2.83h7.73v1.36h-9.48V50.21h9.48v1.36h-7.73v2.3h7.34v1.36Z"/>
<path class="cls-2" d="M199,50.21h1.74v7.85h7.47v1.36H199Z"/>
<path class="cls-2" d="M209.34,50.21h1.74v7.85h7.47v1.36h-9.21Z"/>
<path class="cls-2" d="M219.94,50.21h1.74v9.21h-1.74Z"/>
<path class="cls-2" d="M231.83,54.4h1.74v3.06q0,2-3.28,2h-4.07q-3.28,0-3.28-2V52.2q0-2,3.28-2h7.21v1.36h-7.21q-1.54,0-1.54.63v5.23q0,.63,1.54.63h4.07q1.54,0,1.54-.6Z"/>
<path class="cls-2" d="M236.92,55.24v2.83h7.74v1.36h-9.48V50.21h9.48v1.36h-7.74v2.3h7.34v1.36Z"/>
<path class="cls-2" d="M247.88,52.41v7h-1.65V50.21h1.37l9.17,7.07V50.21h1.65v9.21h-1.37Z"/>
<path class="cls-2" d="M270,58.07v1.36h-7q-3.29,0-3.29-2.12v-5q0-2.12,3.29-2.12h7v1.36h-7q-1.54,0-1.54.76v5q0,.76,1.54.76Z"/>
<path class="cls-2" d="M273.31,55.24v2.83H281v1.36h-9.48V50.21H281v1.36h-7.74v2.3h7.34v1.36Z"/>
<path class="cls-2" d="M297.21,53.84q3.28,0,3.28,2v1.64q0,2-3.28,2h-7.87V58.07h7.87q1.54,0,1.54-.6V55.83q0-.63-1.54-.63h-4.9q-3.29,0-3.28-2v-1q0-2,3.28-2h7.6v1.36h-7.6q-1.54,0-1.54.63v1q0,.63,1.54.63Z"/>
<path class="cls-2" d="M303.8,55.24v2.83h7.74v1.36h-9.48V50.21h9.48v1.36H303.8v2.3h7.34v1.36Z"/>
<path class="cls-2" d="M323.37,58.07v1.36h-7q-3.29,0-3.29-2.12v-5q0-2.12,3.29-2.12h7v1.36h-7q-1.54,0-1.54.76v5q0,.76,1.54.76Z"/>
<path class="cls-2" d="M333.09,58.07q1.54,0,1.54-1V50.21h1.74v6.86q0,2.36-3.29,2.36H328.2q-3.29,0-3.28-2.38V50.21h1.74V57q0,1,1.54,1Z"/>
<path class="cls-2" d="M338.06,59.43V50.21h7.29q3.28,0,3.28,2v1.13q0,1.66-2.28,1.94l2.19,4.16h-1.86l-2.16-4.11h-4.72v4.11Zm1.74-7.85V54h5.55q1.54,0,1.54-.63V52.2q0-.63-1.54-.63Z"/>
<path class="cls-2" d="M350.25,50.21H352v9.21h-1.74Z"/>
<path class="cls-2" d="M353.19,50.21h11.27v1.36h-4.7v7.85H358V51.58h-4.83Z"/>
<path class="cls-2" d="M370.69,55.69l-5.92-5.47H367l4.55,4.21,4.55-4.21h2.2l-5.88,5.47v3.74h-1.74Z"/>
<path class="cls-6" d="M354.66,9.48c.27.48.54,1,.84,1.41a3.32,3.32,0,0,0-.18-.33,5.81,5.81,0,0,0-.3-.51,2.05,2.05,0,0,0-.15-.3A1.64,1.64,0,0,0,354.66,9.48Z"/>
<path class="cls-2" d="M311.29,45.44,333.68,6.89l.74-1.26a12.05,12.05,0,0,1,1.37-1.74c.43-.23,2.93-1.52,5.71,2.83.07.09,8.37,14.4,16.19,27.9L351,23.18,344.8,12.43l-6.24,10.75L325.64,45.44Z"/>
<path class="cls-7" d="M372.78,45.44c-.21-.36-4.08-7-4.38-7.55-.93-1.65-1.89-3.3-2.85-4.94-.45-.78-16.39-28.38-16.45-28.47l0,0A7.49,7.49,0,0,0,343.77,1a10.47,10.47,0,0,0-4.94.57c.66-.21,4-1,6.86,2.76.15.15,23.79,41,23.82,41.09Z"/>
<path class="cls-8" d="M335.77,3.9a2.42,2.42,0,0,1,.36-.35c1.43-1.13,5.39-2.28,8.48,2.75.06.09,3.63,6.26,7.76,13.42.06.12,8.19,14.24,14.81,25.72H364l-3.49-6-2.79-4.8c-7.82-13.5-16.12-27.81-16.19-27.9-2.78-4.35-5.28-3.06-5.71-2.83Z"/>
<path class="cls-9" d="M343.79,0c.33,0,.67,0,1,0A12.52,12.52,0,0,1,351,1.7a15,15,0,0,1,4.15,4l.66,1.14,22.46,38.65h-3.37c-.64-1.09-23.8-41.33-23.8-41.36A9,9,0,0,0,343.79,0Z"/>
</g>
</g>
</svg>